M48
; DRILL file {KiCad (5.1.6)-1} date 07/14/20 19:46:15
; FORMAT={3:3/ absolute / metric / suppress leading zeros}
; #@! TF.CreationDate,2020-07-14T19:46:15+04:00
; #@! TF.GenerationSoftware,Kicad,Pcbnew,(5.1.6)-1
FMAT,2
METRIC,TZ
T1C0.400
T2C0.600
T3C0.700
T4C0.800
T5C0.900
T6C1.016
T7C1.100
T8C1.500
T9C2.200
T10C1.700
T11C3.048
T12C3.050
T13C3.988
T14C4.000
%
G90
G05
T1
X57599Y-86468
X70587Y-128854
X70815Y-88036
X71530Y-74360
X78029Y-128880
X104896Y-124176
X127276Y-177843
X128575Y-80386
X139530Y-177860
X141178Y-80386
X154793Y-80386
X166517Y-80386
X178024Y-80386
X193883Y-80386
X201788Y-80386
X209987Y-80386
X212438Y-178123
X218049Y-80386
X226085Y-68367
X231506Y-80386
X235046Y-65488
X236726Y-69328
X238455Y-69337
X238720Y-67640
X244003Y-80386
X249203Y-67247
X249954Y-173206
X250080Y-68468
X250199Y-66013
X250461Y-67473
X254609Y-121534
X257249Y-62351
X262303Y-60237
X263037Y-64332
X267650Y-60606
X271850Y-63633
X275169Y-121971
X276535Y-67473
X276604Y-172996
X276814Y-62031
X277267Y-68198
X278826Y-68798
X283428Y-173083
X286239Y-65382
X289710Y-173223
X293116Y-62027
X297261Y-76738
X299664Y-74122
X299928Y-78745
X301493Y-74046
X302302Y-66117
X303515Y-88953
X303566Y-78349
X303967Y-74046
X304857Y-66117
X306111Y-74046
X306131Y-78567
X307412Y-66117
X308646Y-74046
X308651Y-78831
X309966Y-66117
X311196Y-78831
X312521Y-66117
X314872Y-71192
X315076Y-66117
X316265Y-73704
X316289Y-78244
X316989Y-87990
X317286Y-147659
X317630Y-66117
X317630Y-71261
X319940Y-71261
X322460Y-71261
X322886Y-63003
X324443Y-92680
X327787Y-96266
X333332Y-169514
X342571Y-93840
X274568Y-65066
X274573Y-66391
X275418Y-65066
X275423Y-66391
X276268Y-65066
X276273Y-66391
X277118Y-65066
X277123Y-66391
X277968Y-65066
X277973Y-66391
X278818Y-65066
X278823Y-66391
X279668Y-65066
X279673Y-66391
X280523Y-65066
X280523Y-66391
T2
X284478Y-68905
X284478Y-70405
T3
X290026Y-68060
X295106Y-68060
X290026Y-70580
X295106Y-70580
X290026Y-65567
X295106Y-65567
X290026Y-73152
X295106Y-73152
X270048Y-59351
X270048Y-64451
X290026Y-75646
X295106Y-75646
X290026Y-78139
X295106Y-78139
X290026Y-63073
X295106Y-63073
T4
X299753Y-61149
X299753Y-76389
X302293Y-61149
X302293Y-76389
X304833Y-61149
X304833Y-76389
X307373Y-61149
X307373Y-76389
X309913Y-61149
X309913Y-76389
X312453Y-61149
X312453Y-76389
X314993Y-61149
X314993Y-76389
X317533Y-61149
X317533Y-76389
X320073Y-61149
X320073Y-76389
X322613Y-61149
X322613Y-76389
X325153Y-61149
X325153Y-76389
X327693Y-61149
X327693Y-76389
X330233Y-61149
X330233Y-76389
X332773Y-61149
X332773Y-76389
X335313Y-61149
X335313Y-76389
X337853Y-61149
X337853Y-76389
X340393Y-61149
X340393Y-76389
X342933Y-61149
X342933Y-76389
X345473Y-61149
X345473Y-76389
X348013Y-61149
X348013Y-76389
X247185Y-70783
X247185Y-75863
X209396Y-70783
X209396Y-75863
X272453Y-70783
X272453Y-75863
X187209Y-72436
X187209Y-77516
X149176Y-72436
X149176Y-77516
X231493Y-69129
X231493Y-74209
X126990Y-67476
X126990Y-72556
X98464Y-72436
X98464Y-77516
X332372Y-80256
X337252Y-80256
X275542Y-72436
X275542Y-77516
X228342Y-67476
X228342Y-72556
X262939Y-72436
X262939Y-77516
X234644Y-70783
X234644Y-75863
X269364Y-69129
X269364Y-74209
X193548Y-69129
X193548Y-74209
X95295Y-70783
X95295Y-75863
X111142Y-72436
X111142Y-77516
X165023Y-67476
X165023Y-72556
X206226Y-69129
X206226Y-74209
X215735Y-67476
X215735Y-72556
X63600Y-67476
X63600Y-72556
X88956Y-67476
X88956Y-72556
X244096Y-69129
X244096Y-74209
X237795Y-72436
X237795Y-77516
X161854Y-72436
X161854Y-77516
X168193Y-69129
X168193Y-74209
X133328Y-70783
X133328Y-75863
X240945Y-67476
X240945Y-72556
X85787Y-72436
X85787Y-77516
X171362Y-70783
X171362Y-75863
X327680Y-79506
X327680Y-82006
X203057Y-67476
X203057Y-72556
X225190Y-72436
X225190Y-77516
X107973Y-70783
X107973Y-75863
X184040Y-70783
X184040Y-75863
X79448Y-69129
X79448Y-74209
X196718Y-70783
X196718Y-75863
X155515Y-69129
X155515Y-74209
X73109Y-72436
X73109Y-77516
X190379Y-67476
X190379Y-72556
X250336Y-72436
X250336Y-77516
X222038Y-70783
X222038Y-75863
X180870Y-69129
X180870Y-74209
X174531Y-72436
X174531Y-77516
X158684Y-70783
X158684Y-75863
X142837Y-69129
X142837Y-74209
X136498Y-72436
X136498Y-77516
X341906Y-79506
X341906Y-82006
X320471Y-78716
X325471Y-78716
X104803Y-69129
X104803Y-74209
X283305Y-73162
X283305Y-78242
X253487Y-67476
X253487Y-72556
X199887Y-72436
X199887Y-77516
X76278Y-67476
X76278Y-72556
X218886Y-69129
X218886Y-74209
X120651Y-70783
X120651Y-75863
X96679Y-148234
X96679Y-153314
X130159Y-69129
X130159Y-74209
X212565Y-72436
X212565Y-77516
X177701Y-67476
X177701Y-72556
X92125Y-69129
X92125Y-74209
X152345Y-67476
X152345Y-72556
X286175Y-73162
X286175Y-78242
X266090Y-67476
X266090Y-72556
X146006Y-70783
X146006Y-75863
X259788Y-70783
X259788Y-75863
X123820Y-72436
X123820Y-77516
X69939Y-70783
X69939Y-75863
X66770Y-69129
X66770Y-74209
X256637Y-69129
X256637Y-74209
X325126Y-58926
X330126Y-58926
X101634Y-67476
X101634Y-72556
X82617Y-70783
X82617Y-75863
X139667Y-67476
X139667Y-72556
X114312Y-67476
X114312Y-72556
X117481Y-69129
X117481Y-74209
T5
X284128Y-61971
X286668Y-61971
T6
X250214Y-60351
X250214Y-62891
X252754Y-60351
X252754Y-62891
X255294Y-60351
X255294Y-62891
T7
X238486Y-59836
X238486Y-64336
X244986Y-59836
X244986Y-64336
X226486Y-59836
X226486Y-64336
X232986Y-59836
X232986Y-64336
T8
X78581Y-92234
X84931Y-89694
X250061Y-168424
X256411Y-165884
X288172Y-168424
X294522Y-165884
X140494Y-149384
X146844Y-146844
X169068Y-130334
X175418Y-127794
X240506Y-111284
X246856Y-108744
X278606Y-111284
X284956Y-108744
X188118Y-130334
X194468Y-127794
X192881Y-92234
X199231Y-89694
X316706Y-92234
X323056Y-89694
X269116Y-168434
X275466Y-165894
X83344Y-149384
X89694Y-146844
X345281Y-149384
X351631Y-146844
X326231Y-168434
X332581Y-165894
X121444Y-149384
X127794Y-146844
X92869Y-130334
X99219Y-127794
X221456Y-111284
X227806Y-108744
X126206Y-111284
X132556Y-108744
X145256Y-111284
X151606Y-108744
X97631Y-92234
X103981Y-89694
X288131Y-92234
X294481Y-89694
X283390Y-168434
X289740Y-165894
X61913Y-149384
X68263Y-146844
X273844Y-149384
X280194Y-146844
X207168Y-130334
X213518Y-127794
X102394Y-149384
X108744Y-146844
X323850Y-120809
X330200Y-118269
X164306Y-111284
X170656Y-108744
X183356Y-111284
X189706Y-108744
X254834Y-168434
X261184Y-165894
X92893Y-168430
X99243Y-165890
X202406Y-111284
X208756Y-108744
X297656Y-111284
X304006Y-108744
X211931Y-92234
X218281Y-89694
X173858Y-168442
X180208Y-165902
X302419Y-130334
X308769Y-127794
X235744Y-149384
X242094Y-146844
X216694Y-149384
X223044Y-146844
X197644Y-149384
X203994Y-146844
X345281Y-130334
X351631Y-127794
X130969Y-130334
X137319Y-127794
X345281Y-92234
X351631Y-89694
X300037Y-149384
X306387Y-146844
X64294Y-168424
X70644Y-165884
X250031Y-92234
X256381Y-89694
X116681Y-92234
X123031Y-89694
X107156Y-111284
X113506Y-108744
X326231Y-149384
X332581Y-146844
X307181Y-168434
X313531Y-165894
X345281Y-168434
X351631Y-165894
X178594Y-149384
X184944Y-146844
X283368Y-130334
X289718Y-127794
X111919Y-130334
X118269Y-127794
X173831Y-92234
X180181Y-89694
X230981Y-92234
X237331Y-89694
X64294Y-111284
X70644Y-108744
X269081Y-92234
X275431Y-89694
X254794Y-149384
X261144Y-146844
X180975Y-168434
X187325Y-165894
X226218Y-130334
X232568Y-127794
X245268Y-130334
X251618Y-127794
X345281Y-111284
X351631Y-108744
X154781Y-92234
X161131Y-89694
X109537Y-168424
X115887Y-165884
X61913Y-130324
X68263Y-127784
X135731Y-92234
X142081Y-89694
X66675Y-130324
X73025Y-127784
X85725Y-168434
X92075Y-165894
X159544Y-149384
X165894Y-146844
X264318Y-130334
X270668Y-127794
X259556Y-111284
X265906Y-108744
X59531Y-92234
X65881Y-89694
X150018Y-130334
X156368Y-127794
X61912Y-168424
X68262Y-165884
X88106Y-111284
X94456Y-108744
T9
X96566Y-161147
X206213Y-80445
X315861Y-161147
X113755Y-104303
X57766Y-80445
X298672Y-104303
X206213Y-61695
X57766Y-61695
X206213Y-104303
X354660Y-61695
X206213Y-166958
X354660Y-80445
T10
X315436Y-94774
X325596Y-94774
X267846Y-170974
X278006Y-170974
X82074Y-151924
X92234Y-151924
X344011Y-151924
X354171Y-151924
X324961Y-170974
X335121Y-170974
X120174Y-151924
X130334Y-151924
X91599Y-132874
X101759Y-132874
X220186Y-113824
X230346Y-113824
X124936Y-113824
X135096Y-113824
X143986Y-113824
X154146Y-113824
X96361Y-94774
X106521Y-94774
X286861Y-94774
X297021Y-94774
X282120Y-170974
X292280Y-170974
X60643Y-151924
X70803Y-151924
X272574Y-151924
X282734Y-151924
X205898Y-132874
X216058Y-132874
X101124Y-151924
X111284Y-151924
X322580Y-123349
X332740Y-123349
X163036Y-113824
X173196Y-113824
X182086Y-113824
X192246Y-113824
X253564Y-170974
X263724Y-170974
X91623Y-170970
X101783Y-170970
X201136Y-113824
X211296Y-113824
X296386Y-113824
X306546Y-113824
X210661Y-94774
X220821Y-94774
X172588Y-170982
X182748Y-170982
X301149Y-132874
X311309Y-132874
X234474Y-151924
X244634Y-151924
X215424Y-151924
X225584Y-151924
X196374Y-151924
X206534Y-151924
X344011Y-132874
X354171Y-132874
X129699Y-132874
X139859Y-132874
X344011Y-94774
X354171Y-94774
X298767Y-151924
X308927Y-151924
X63024Y-170964
X73184Y-170964
X248761Y-94774
X258921Y-94774
X115411Y-94774
X125571Y-94774
X105886Y-113824
X116046Y-113824
X324961Y-151924
X335121Y-151924
X305911Y-170974
X316071Y-170974
X344011Y-170974
X354171Y-170974
X177324Y-151924
X187484Y-151924
X282098Y-132874
X292258Y-132874
X110649Y-132874
X120809Y-132874
X172561Y-94774
X182721Y-94774
X229711Y-94774
X239871Y-94774
X63024Y-113824
X73184Y-113824
X267811Y-94774
X277971Y-94774
X253524Y-151924
X263684Y-151924
X179705Y-170974
X189865Y-170974
X224948Y-132874
X235108Y-132874
X243998Y-132874
X254158Y-132874
X344011Y-113824
X354171Y-113824
X153511Y-94774
X163671Y-94774
X108267Y-170964
X118427Y-170964
X60643Y-132864
X70803Y-132864
X134461Y-94774
X144621Y-94774
X65405Y-132864
X75565Y-132864
X84455Y-170974
X94615Y-170974
X158274Y-151924
X168434Y-151924
X263048Y-132874
X273208Y-132874
X258286Y-113824
X268446Y-113824
X58261Y-94774
X68421Y-94774
X148748Y-132874
X158908Y-132874
X60642Y-170964
X70802Y-170964
X86836Y-113824
X96996Y-113824
X77311Y-94774
X87471Y-94774
X248791Y-170964
X258951Y-170964
X286902Y-170964
X297062Y-170964
X139224Y-151924
X149384Y-151924
X167798Y-132874
X177958Y-132874
X239236Y-113824
X249396Y-113824
X277336Y-113824
X287496Y-113824
X186848Y-132874
X197008Y-132874
X191611Y-94774
X201771Y-94774
T11
X134811Y-177967
X234811Y-177967
X120518Y-177967
X234818Y-177967
T12
X308616Y-87774
X332416Y-87774
X334660Y-111449
X334660Y-135249
T13
X134811Y-162727
X234811Y-162727
X120518Y-162727
X234818Y-162727
T14
X184785Y-170974
X230028Y-132874
X249078Y-132874
X349091Y-113824
X158591Y-94774
X113347Y-170964
X65722Y-132864
X139541Y-94774
X70485Y-132864
X89535Y-170974
X163354Y-151924
X268128Y-132874
X263366Y-113824
X63341Y-94774
X153828Y-132874
X65722Y-170964
X91916Y-113824
X82391Y-94774
X253871Y-170964
X291982Y-170964
X144304Y-151924
X172878Y-132874
X244316Y-113824
X282416Y-113824
X191928Y-132874
X196691Y-94774
X308616Y-103014
X320516Y-94774
X332416Y-103014
X272926Y-170974
X87154Y-151924
X349091Y-151924
X330041Y-170974
X125254Y-151924
X96679Y-132874
X225266Y-113824
X130016Y-113824
X149066Y-113824
X101441Y-94774
X291941Y-94774
X287200Y-170974
X65722Y-151924
X277654Y-151924
X210978Y-132874
X106204Y-151924
X319420Y-111449
X319420Y-135249
X327660Y-123349
X168116Y-113824
X187166Y-113824
X258644Y-170974
X96703Y-170970
X206216Y-113824
X301466Y-113824
X215741Y-94774
X177668Y-170982
X306229Y-132874
X239554Y-151924
X220504Y-151924
X201454Y-151924
X349091Y-132874
X134779Y-132874
X349091Y-94774
X303847Y-151924
X68104Y-170964
X253841Y-94774
X120491Y-94774
X110966Y-113824
X330041Y-151924
X310991Y-170974
X349091Y-170974
X182404Y-151924
X287178Y-132874
X115729Y-132874
X177641Y-94774
X234791Y-94774
X68104Y-113824
X272891Y-94774
X258604Y-151924
T2
G00X273223Y-62431
M15
G01X273223Y-61631
M16
G05
G00X273223Y-66161
M15
G01X273223Y-64661
M16
G05
G00X281873Y-62431
M15
G01X281873Y-61631
M16
G05
G00X281873Y-66161
M15
G01X281873Y-64661
M16
G05
T0
M30
